<svg xmlns="http://www.w3.org/2000/svg" xmlns:xlink="http://www.w3.org/1999/xlink" width="500" zoomAndPan="magnify" viewBox="0 0 375 374.999991" height="500" preserveAspectRatio="xMidYMid meet" version="1.0"><defs><clipPath id="52644fbcb9"><path d="M 76.136719 76.414062 L 298.886719 76.414062 L 298.886719 298.414062 L 76.136719 298.414062 Z M 76.136719 76.414062 " clip-rule="nonzero"/></clipPath></defs><g clip-path="url(#52644fbcb9)"><path fill="#000000" d="M 294.183594 224.871094 C 291.851562 224.871094 289.960938 222.980469 289.960938 220.652344 L 289.960938 91.242188 L 218.289062 162.851562 C 216.636719 164.5 213.964844 164.5 212.316406 162.851562 C 210.667969 161.203125 210.667969 158.535156 212.316406 156.886719 L 291.199219 78.070312 C 292.402344 76.863281 294.21875 76.503906 295.800781 77.15625 C 297.375 77.808594 298.40625 79.347656 298.40625 81.054688 L 298.40625 220.652344 C 298.40625 222.980469 296.515625 224.871094 294.183594 224.871094 Z M 80.859375 298.414062 C 78.53125 298.414062 76.640625 296.527344 76.640625 294.195312 L 76.640625 147.109375 C 76.640625 145.40625 77.667969 143.867188 79.246094 143.214844 C 80.824219 142.558594 82.640625 142.921875 83.847656 144.125 L 157.453125 217.671875 C 159.101562 219.316406 159.101562 221.988281 157.453125 223.636719 C 155.800781 225.285156 153.128906 225.285156 151.480469 223.636719 L 85.085938 157.296875 L 85.085938 294.195312 C 85.085938 296.527344 83.191406 298.414062 80.859375 298.414062 Z M 294.183594 298.414062 C 293.101562 298.414062 292.023438 298.003906 291.199219 297.179688 L 77.875 84.035156 C 76.226562 82.390625 76.226562 79.71875 77.875 78.070312 C 79.523438 76.421875 82.199219 76.421875 83.847656 78.070312 L 297.167969 291.210938 C 298.816406 292.859375 298.816406 295.53125 297.167969 297.179688 C 296.34375 298.003906 295.261719 298.414062 294.183594 298.414062 " fill-opacity="1" fill-rule="nonzero"/></g></svg>